<svg width="60" height="60" viewBox="0 0 60 60" fill="none" xmlns="http://www.w3.org/2000/svg">
<path d="M51.5625 6.5625H8.4375C7.40039 6.5625 6.5625 7.40039 6.5625 8.4375V51.5625C6.5625 52.5996 7.40039 53.4375 8.4375 53.4375H51.5625C52.5996 53.4375 53.4375 52.5996 53.4375 51.5625V8.4375C53.4375 7.40039 52.5996 6.5625 51.5625 6.5625ZM20.4668 46.5059H13.5117V24.1348H20.4668V46.5059ZM16.9922 21.0762C16.1949 21.0762 15.4155 20.8397 14.7525 20.3968C14.0896 19.9538 13.5729 19.3242 13.2678 18.5876C12.9627 17.851 12.8829 17.0405 13.0384 16.2585C13.1939 15.4765 13.5779 14.7582 14.1417 14.1944C14.7054 13.6306 15.4237 13.2467 16.2057 13.0911C16.9877 12.9356 17.7983 13.0154 18.5349 13.3205C19.2715 13.6256 19.9011 14.1423 20.344 14.8053C20.787 15.4682 21.0234 16.2476 21.0234 17.0449C21.0176 19.2715 19.2129 21.0762 16.9922 21.0762ZM46.5059 46.5059H39.5566V35.625C39.5566 33.0293 39.5098 29.6953 35.9414 29.6953C32.3262 29.6953 31.7695 32.5195 31.7695 35.4375V46.5059H24.8262V24.1348H31.4941V27.1934H31.5879C32.5137 25.4355 34.7813 23.5781 38.168 23.5781C45.2109 23.5781 46.5059 28.2129 46.5059 34.2363V46.5059Z" fill="white"/>
</svg>
