<svg width="60" height="60" viewBox="0 0 60 60" fill="none" xmlns="http://www.w3.org/2000/svg">
<path d="M54.375 14.9004C52.582 15.6738 50.6309 16.2305 48.6211 16.4473C50.7077 15.2076 52.2703 13.2492 53.0156 10.9394C51.0576 12.1042 48.9126 12.921 46.6758 13.3535C45.7409 12.3541 44.6102 11.5578 43.3541 11.0145C42.0981 10.4711 40.7436 10.1923 39.375 10.1953C33.8379 10.1953 29.3848 14.6836 29.3848 20.1914C29.3848 20.9648 29.4785 21.7383 29.6309 22.4824C21.3398 22.0488 13.9453 18.0879 9.0293 12.0234C8.13355 13.5534 7.66414 15.2955 7.66992 17.0683C7.66992 20.5371 9.43359 23.5957 12.123 25.3945C10.5381 25.3321 8.99029 24.8965 7.60547 24.123V24.2461C7.60547 29.1035 11.0391 33.1289 15.6152 34.0547C14.756 34.2779 13.8721 34.392 12.9844 34.3945C12.334 34.3945 11.7188 34.3301 11.0977 34.2422C12.3633 38.2031 16.0488 41.0801 20.4375 41.1738C17.0039 43.8633 12.7031 45.4453 8.0332 45.4453C7.19531 45.4453 6.42188 45.416 5.61914 45.3222C10.0488 48.164 15.3047 49.8047 20.9648 49.8047C39.3399 49.8047 49.3945 34.582 49.3945 21.3691C49.3945 20.9355 49.3945 20.5019 49.3652 20.0683C51.3106 18.6445 53.0156 16.8808 54.375 14.9004Z" fill="white"/>
</svg>
