<svg width="60" height="60" viewBox="0 0 60 60" fill="none" xmlns="http://www.w3.org/2000/svg">
<path fill-rule="evenodd" clip-rule="evenodd" d="M35 17.5C33.6193 17.5 32.5 18.6193 32.5 20V40C32.5 41.3808 33.6193 42.5 35 42.5H45C46.3808 42.5 47.5 41.3808 47.5 40V20C47.5 18.6193 46.3808 17.5 45 17.5H35ZM42.5 22.5H37.5V37.5H42.5V22.5Z" fill="white"/>
<path d="M15 17.5C13.6193 17.5 12.5 18.6193 12.5 20C12.5 21.3807 13.6193 22.5 15 22.5H25C26.3808 22.5 27.5 21.3807 27.5 20C27.5 18.6193 26.3808 17.5 25 17.5H15Z" fill="white"/>
<path d="M15 27.5C13.6193 27.5 12.5 28.6193 12.5 30C12.5 31.3808 13.6193 32.5 15 32.5H25C26.3808 32.5 27.5 31.3808 27.5 30C27.5 28.6193 26.3808 27.5 25 27.5H15Z" fill="white"/>
<path d="M12.5 40C12.5 38.6192 13.6193 37.5 15 37.5H25C26.3808 37.5 27.5 38.6192 27.5 40C27.5 41.3807 26.3808 42.5 25 42.5H15C13.6193 42.5 12.5 41.3807 12.5 40Z" fill="white"/>
<path fill-rule="evenodd" clip-rule="evenodd" d="M10 7.5C5.85788 7.5 2.5 10.8579 2.5 15V45C2.5 49.1423 5.85788 52.5 10 52.5H50C54.1423 52.5 57.5 49.1423 57.5 45V15C57.5 10.8579 54.1423 7.5 50 7.5H10ZM50 12.5H10C8.6193 12.5 7.5 13.6193 7.5 15V45C7.5 46.3808 8.6193 47.5 10 47.5H50C51.3808 47.5 52.5 46.3808 52.5 45V15C52.5 13.6193 51.3808 12.5 50 12.5Z" fill="white"/>
</svg>
